<?xml version="1.0" standalone="no"?>
<!DOCTYPE svg PUBLIC "-//W3C//DTD SVG 20010904//EN"
 "http://www.w3.org/TR/2001/REC-SVG-20010904/DTD/svg10.dtd">
<svg version="1.0" xmlns="http://www.w3.org/2000/svg"
 width="1200.000000pt" height="1200.000000pt" viewBox="0 0 1200.000000 1200.000000"
 preserveAspectRatio="xMidYMid meet">

<g transform="translate(0.000000,1200.000000) scale(0.100000,-0.100000)"
fill="#000000" stroke="none">
<path d="M0 6000 l0 -6000 6000 0 6000 0 0 6000 0 6000 -6000 0 -6000 0 0
-6000z m6223 2944 c307 -178 629 -364 867 -501 118 -69 302 -174 408 -235
l192 -111 0 -973 0 -972 -68 -38 c-37 -20 -161 -92 -277 -159 -115 -67 -311
-180 -435 -252 -124 -71 -376 -217 -560 -323 -184 -107 -342 -194 -350 -194
-15 0 -124 62 -965 549 -220 127 -473 273 -561 324 l-161 93 -1 973 c0 965 1
972 21 984 11 7 110 65 221 128 111 64 323 187 471 273 149 86 380 220 515
298 135 77 292 168 350 201 58 34 111 59 118 56 7 -2 103 -57 215 -121z m711
-4704 c102 -39 173 -120 191 -222 l7 -38 -95 0 c-91 0 -96 1 -102 23 -22 77
-66 108 -158 108 -78 1 -122 -19 -144 -65 -19 -41 -12 -79 23 -111 25 -23 64
-40 207 -90 98 -34 189 -93 222 -143 61 -92 56 -222 -11 -300 -123 -144 -451
-144 -593 0 -43 43 -70 97 -78 153 l-6 45 95 0 94 0 11 -43 c7 -23 23 -53 36
-65 53 -50 185 -63 250 -25 21 12 36 33 45 57 25 77 -26 130 -168 177 -229 76
-330 166 -330 296 0 95 38 164 118 210 107 63 269 77 386 33z m-4235 9 c133
-21 224 -88 251 -184 21 -73 9 -193 -24 -249 -24 -41 -85 -97 -119 -109 -13
-4 4 -41 123 -265 38 -73 70 -135 70 -138 0 -2 -47 -4 -104 -4 l-104 0 -89
175 -88 175 -82 0 -83 0 0 -175 0 -175 -95 0 -95 0 0 480 0 480 188 0 c103 0
216 -5 251 -11z m3021 -149 l0 -90 60 0 60 0 0 -70 0 -70 -60 0 -60 0 0 -193
c0 -228 1 -232 79 -231 l51 1 0 -69 c0 -65 -1 -68 -27 -75 -53 -14 -156 -8
-196 11 -82 40 -97 97 -97 367 l0 189 -50 0 -50 0 0 70 0 70 50 0 50 0 0 90 0
90 95 0 95 0 0 -90z m1820 0 l0 -90 60 0 60 0 0 -70 0 -70 -60 0 -60 0 0 -193
c0 -228 1 -232 79 -231 l51 1 0 -69 c0 -65 -1 -68 -27 -75 -53 -14 -156 -8
-196 11 -82 40 -97 97 -97 367 l0 189 -50 0 -50 0 0 70 0 70 50 0 50 0 0 90 0
90 95 0 95 0 0 -90z m-3923 -106 c106 -51 163 -161 163 -315 l0 -79 -226 0
-226 0 7 -27 c31 -131 203 -176 309 -82 l34 29 41 -46 c23 -26 41 -53 41 -60
0 -21 -86 -81 -143 -100 -61 -21 -183 -24 -244 -6 -153 45 -242 192 -230 377
8 133 63 240 150 294 90 56 228 62 324 15z m780 0 c115 -56 133 -109 133 -394
0 -149 4 -220 14 -254 l14 -47 -96 3 -95 3 -12 34 c-10 30 -12 32 -25 16 -52
-62 -197 -80 -286 -34 -70 36 -107 92 -112 172 -10 161 112 247 351 247 l57 0
0 46 c0 63 -40 104 -100 104 -53 0 -98 -24 -106 -55 -6 -24 -8 -25 -101 -25
-93 0 -94 0 -88 23 4 12 9 31 12 42 18 62 105 124 203 145 72 15 178 3 237
-26z m773 5 c86 -37 141 -116 152 -219 3 -25 2 -25 -83 -28 l-87 -3 -6 34 c-3
18 -20 47 -37 63 -25 24 -39 29 -78 29 -101 0 -135 -55 -135 -215 0 -122 15
-168 66 -200 64 -40 162 -9 183 58 l9 32 87 0 86 0 -8 -46 c-16 -83 -69 -147
-154 -185 -71 -32 -199 -32 -272 0 -61 27 -125 92 -156 159 -18 41 -21 65 -21
182 0 117 3 141 21 182 43 92 123 158 216 178 62 13 160 4 217 -21z m3081 6
c132 -45 215 -199 203 -379 -13 -212 -136 -332 -339 -330 -137 1 -231 57 -287
172 -32 65 -33 70 -33 192 0 108 3 131 22 173 47 101 125 166 225 187 54 11
152 4 209 -15z m763 19 c13 -5 16 -23 16 -96 l0 -89 -32 5 c-52 8 -117 -9
-149 -40 l-29 -28 0 -238 0 -238 -90 0 c-89 0 -90 0 -91 25 0 14 0 162 0 330
0 168 0 316 0 330 1 25 2 25 86 25 l85 0 0 -28 c0 -44 10 -45 47 -7 43 44 113
66 157 49z m594 -20 c119 -49 182 -162 182 -326 l0 -78 -226 0 -226 0 7 -27
c31 -131 203 -176 309 -82 l34 29 41 -46 c23 -26 41 -53 41 -60 0 -21 -86 -81
-143 -100 -61 -21 -183 -24 -244 -6 -153 45 -242 192 -230 377 11 176 92 289
238 330 62 17 162 12 217 -11z"/>
<path d="M5905 8851 c-93 -55 -387 -225 -735 -426 -135 -78 -337 -195 -450
-260 -113 -65 -217 -126 -232 -134 l-28 -16 0 -890 0 -891 168 -96 c166 -96
550 -317 922 -533 107 -62 251 -145 318 -184 68 -39 128 -71 133 -71 5 0 78
40 162 89 204 118 1203 697 1314 760 l63 36 0 890 0 890 -233 134 c-127 74
-315 183 -417 242 -684 396 -883 509 -893 508 -7 0 -48 -22 -92 -48z m241
-976 c74 -42 145 -80 158 -85 22 -8 23 -12 19 -82 l-5 -73 154 -84 c84 -46
165 -93 180 -103 l28 -19 2 -166 3 -166 71 -35 71 -36 -2 -176 c0 -96 -4 -180
-8 -187 -10 -16 -295 -173 -314 -173 -9 0 -30 9 -48 20 l-32 20 -206 -115
c-114 -63 -211 -115 -217 -115 -5 0 -102 52 -216 115 l-207 115 -32 -20 c-44
-27 -53 -26 -132 18 -37 22 -99 56 -138 77 -108 58 -101 40 -99 232 1 92 2
173 3 178 0 6 33 28 71 49 l70 37 0 164 0 164 28 19 c15 10 96 57 180 103
l152 84 0 71 0 71 113 63 c61 35 130 73 152 86 22 13 46 23 53 24 7 0 74 -34
148 -75z"/>
<path d="M5901 7825 c-51 -30 -97 -57 -102 -62 -6 -6 34 -33 96 -67 l105 -57
105 57 c58 32 105 60 105 63 0 5 -194 113 -210 117 -3 1 -47 -22 -99 -51z"/>
<path d="M5749 7697 c-1 -1 -2 -53 -3 -116 -1 -79 2 -118 11 -127 13 -12 197
-114 208 -114 3 0 4 54 3 121 l-3 121 -107 58 c-60 32 -109 58 -109 57z"/>
<path d="M6138 7638 l-108 -60 0 -119 c0 -65 3 -119 8 -119 7 0 202 107 212
117 6 6 7 234 0 238 -3 1 -53 -25 -112 -57z"/>
<path d="M5525 7471 l-140 -78 -1 -114 c0 -63 2 -119 4 -126 2 -7 18 -3 45 13
23 13 51 24 61 24 11 0 81 -34 156 -75 75 -41 142 -75 148 -75 6 0 14 -5 17
-10 8 -12 7 -344 -1 -363 -2 -6 -38 -30 -79 -52 -41 -22 -75 -43 -75 -47 0 -3
77 -49 170 -101 l171 -94 169 94 c94 52 170 98 170 102 0 3 -34 24 -75 46 -47
25 -77 48 -81 60 -2 11 -3 94 -2 184 l3 164 160 88 159 89 52 -30 c35 -20 53
-25 56 -17 2 7 4 63 4 126 l-1 114 -140 78 c-77 43 -143 79 -147 79 -5 0 -8
-29 -8 -64 0 -76 11 -66 -187 -175 l-133 -73 -122 68 c-213 117 -198 104 -198
179 0 36 -3 65 -7 65 -5 0 -71 -36 -148 -79z"/>
<path d="M5391 7066 c-52 -29 -96 -57 -98 -63 -2 -5 34 -29 79 -53 46 -24 92
-49 102 -56 16 -11 31 -6 115 38 53 28 102 56 109 61 9 8 -14 25 -90 68 -57
32 -107 58 -113 58 -5 -1 -53 -25 -104 -53z"/>
<path d="M6392 7061 l-103 -59 58 -32 c32 -18 81 -45 108 -60 l50 -28 108 60
109 60 -107 59 c-58 33 -109 59 -113 59 -4 -1 -53 -27 -110 -59z"/>
<path d="M5240 6821 l0 -119 108 -59 107 -60 3 121 c2 106 1 121 -15 130 -38
23 -194 106 -198 106 -3 0 -5 -54 -5 -119z"/>
<path d="M5633 6882 l-103 -56 0 -123 0 -124 23 12 c12 6 61 34 110 61 l87 50
0 119 c0 66 -3 119 -7 118 -5 -1 -54 -26 -110 -57z"/>
<path d="M6250 6820 l0 -119 43 -24 c23 -13 72 -41 110 -61 l67 -37 0 123 0
123 -105 58 c-57 31 -106 57 -110 57 -3 0 -5 -54 -5 -120z"/>
<path d="M6643 6882 l-103 -57 0 -123 0 -124 43 25 c23 14 72 41 110 62 l67
37 0 119 c0 65 -3 119 -7 119 -5 -1 -54 -27 -110 -58z"/>
<path d="M2450 3955 l0 -145 106 0 c121 0 165 14 195 64 24 39 25 110 1 156
-27 55 -68 70 -194 70 l-108 0 0 -145z"/>
<path d="M3410 3862 c-35 -18 -64 -57 -75 -104 l-7 -28 136 0 136 0 0 28 c0
40 -36 91 -75 108 -45 18 -73 18 -115 -4z"/>
<path d="M4178 3614 c-64 -27 -87 -116 -40 -157 42 -36 133 -27 178 18 20 21
24 34 24 90 l0 65 -62 -1 c-35 0 -80 -7 -100 -15z"/>
<path d="M8060 3863 c-21 -11 -45 -36 -60 -63 -22 -39 -25 -57 -25 -140 0 -77
4 -103 21 -134 42 -80 128 -109 193 -64 62 41 76 79 76 198 0 87 -3 111 -20
139 -42 71 -119 98 -185 64z"/>
<path d="M9420 3862 c-35 -18 -64 -57 -75 -104 l-7 -28 136 0 136 0 0 28 c0
40 -36 91 -75 108 -45 18 -73 18 -115 -4z"/>
</g>
</svg>
